<svg id="Layer_1" data-name="Layer 1" xmlns="http://www.w3.org/2000/svg" xmlns:xlink="http://www.w3.org/1999/xlink" viewBox="0 0 219.28 219.28"><defs><style>.cls-1{fill:url(#radial-gradient);}.cls-2{fill:url(#radial-gradient-2);}</style><radialGradient id="radial-gradient" cx="109.64" cy="109.64" r="105.39" gradientUnits="userSpaceOnUse"><stop offset="0" stop-color="#fff"/><stop offset="1" stop-color="#bfeef8"/></radialGradient><radialGradient id="radial-gradient-2" cx="109.64" cy="109.64" fx="17.8529387534944" fy="78.93824629126507" r="96.78" gradientTransform="translate(0 -28.76) scale(1 1.26)" gradientUnits="userSpaceOnUse"><stop offset="0.15" stop-color="#27daf9"/><stop offset="1" stop-color="#1a9be2"/></radialGradient></defs><rect class="cls-1" width="219.28" height="219.28"/><path class="cls-2" d="M169.92,48.86H49.36a27,27,0,0,0-27,27v67.58a27,27,0,0,0,27,27H169.92a27,27,0,0,0,27-27V75.85A27,27,0,0,0,169.92,48.86ZM106.84,93.94H91.42v41.82H79V93.94H63.89V84.37h43Zm32.51,41.82H125.8L108.64,84.37h13.73l10.2,37.42,10.24-37.42h13.83Z"/></svg>